{
	"asset":{
		"generator":"Khronos glTF Blender I/O v4.2.83",
		"version":"2.0"
	},
	"scene":0,
	"scenes":[
		{
			"name":"Scene",
			"nodes":[
				0
			]
		}
	],
	"nodes":[
		{
			"mesh":0,
			"name":"Layer:0",
			"translation":[
				101,
				1,
				-101
			]
		}
	],
	"meshes":[
		{
			"name":"Mesh",
			"primitives":[
				{
					"attributes":{
						"POSITION":0,
						"NORMAL":1,
						"TEXCOORD_0":2
					},
					"indices":3
				}
			]
		}
	],
	"accessors":[
		{
			"bufferView":0,
			"componentType":5126,
			"count":3252,
			"max":[
				101,
				1,
				101
			],
			"min":[
				-101,
				-1,
				-101
			],
			"type":"VEC3"
		},
		{
			"bufferView":1,
			"componentType":5126,
			"count":3252,
			"type":"VEC3"
		},
		{
			"bufferView":2,
			"componentType":5126,
			"count":3252,
			"type":"VEC2"
		},
		{
			"bufferView":3,
			"componentType":5123,
			"count":6480,
			"type":"SCALAR"
		}
	],
	"bufferViews":[
		{
			"buffer":0,
			"byteLength":39024,
			"byteOffset":0,
			"target":34962
		},
		{
			"buffer":0,
			"byteLength":39024,
			"byteOffset":39024,
			"target":34962
		},
		{
			"buffer":0,
			"byteLength":26016,
			"byteOffset":78048,
			"target":34962
		},
		{
			"buffer":0,
			"byteLength":12960,
			"byteOffset":104064,
			"target":34963
		}
	],
	"buffers":[
		{
			"byteLength":117024,
			"uri":"laberinto001.bin"
		}
	]
}
